<?xml version="1.0" standalone="no"?>
<!DOCTYPE svg PUBLIC "-//W3C//DTD SVG 20010904//EN"
 "http://www.w3.org/TR/2001/REC-SVG-20010904/DTD/svg10.dtd">
<svg version="1.0" xmlns="http://www.w3.org/2000/svg"
 width="512.000000pt" height="512.000000pt" viewBox="0 0 512.000000 512.000000"
 preserveAspectRatio="xMidYMid meet">

<g transform="translate(0.000000,512.000000) scale(0.100000,-0.100000)"
fill="#000000" stroke="none">
<path d="M3138 4396 c-133 -45 -238 -144 -289 -274 -31 -77 -34 -288 -6 -370
25 -71 52 -88 113 -73 120 30 240 122 296 227 58 107 74 256 42 394 -26 115
-53 132 -156 96z"/>
<path d="M2472 4323 c-16 -6 -115 -202 -142 -282 -27 -80 -27 -206 -1 -290 37
-119 97 -190 234 -275 60 -37 84 -47 107 -44 17 3 29 1 28 -3 -13 -36 -253
-528 -256 -525 -2 2 1 21 7 43 16 56 13 200 -4 268 -35 134 -98 232 -203 313
-32 24 -58 47 -60 52 -2 5 9 32 23 60 33 65 31 108 -7 130 -48 26 -71 3 -143
-150 -36 -74 -71 -162 -80 -195 -30 -117 -15 -258 41 -372 38 -78 105 -146
212 -213 77 -49 104 -60 130 -58 17 2 32 3 32 2 0 0 -36 -75 -79 -165 -44 -90
-79 -165 -77 -166 1 -1 34 1 73 4 l71 6 58 121 c51 108 58 119 67 98 12 -26
166 -126 235 -152 149 -56 304 -19 425 101 48 48 70 84 133 213 80 164 84 183
39 212 -41 27 -73 9 -107 -61 l-31 -62 -67 35 c-178 91 -378 54 -528 -97 -31
-31 -53 -51 -50 -46 3 6 60 126 128 268 106 221 125 255 134 238 13 -23 118
-93 196 -130 47 -22 69 -26 145 -26 78 0 97 4 148 29 92 45 146 107 221 255
38 74 66 142 66 160 0 37 -23 61 -59 61 -31 0 -50 -18 -76 -70 -10 -19 -19
-36 -20 -38 -1 -1 -33 12 -71 30 -63 30 -77 33 -164 33 -86 0 -101 -3 -163
-32 -44 -21 -89 -53 -127 -91 l-59 -59 35 68 c19 38 34 77 34 87 0 31 -29 62
-59 62 -36 0 -54 -15 -86 -75 -14 -27 -23 -41 -20 -30 4 11 9 56 12 100 12
184 -69 352 -221 461 l-29 21 26 57 c29 63 28 100 -3 116 -20 11 -47 12 -68 3z"/>
<path d="M1807 3219 c-26 -15 -156 -292 -179 -384 -25 -96 -21 -228 10 -315
25 -72 70 -160 81 -160 5 0 56 11 113 24 56 14 154 33 216 43 l113 17 -7 66
c-19 188 -118 361 -259 455 -30 20 -55 40 -55 46 0 5 14 36 30 69 36 72 39
113 8 134 -26 18 -46 20 -71 5z"/>
<path d="M2305 2329 c-136 -11 -288 -34 -420 -64 l-110 -25 -71 -73 c-172
-178 -246 -346 -248 -565 -1 -100 -3 -115 -20 -128 -28 -20 -63 -17 -86 6 -18
18 -20 33 -20 133 0 172 52 340 151 483 17 25 29 47 26 50 -9 9 -259 -125
-337 -182 -105 -75 -218 -194 -263 -275 -55 -101 -72 -162 -71 -264 0 -76 4
-99 27 -148 37 -80 78 -129 152 -182 184 -132 495 -210 971 -245 385 -28 984
-21 1329 16 364 38 631 115 788 227 307 219 222 621 -188 896 -133 89 -452
231 -518 231 -28 0 -117 -113 -163 -205 -67 -136 -77 -185 -79 -369 -1 -142
-3 -160 -20 -172 -26 -20 -62 -17 -84 5 -14 14 -21 41 -26 97 -21 215 45 455
169 622 26 35 46 65 44 67 -20 16 -349 60 -529 71 l-116 7 -55 -76 c-160 -219
-228 -448 -198 -672 12 -89 11 -97 -6 -116 -24 -27 -71 -22 -95 11 -12 16 -22
59 -30 119 -24 204 36 438 166 647 45 72 51 85 38 83 -5 -1 -53 -5 -108 -10z"/>
</g>
</svg>
