<?xml version="1.0" standalone="no"?>
<!DOCTYPE svg PUBLIC "-//W3C//DTD SVG 20010904//EN"
 "http://www.w3.org/TR/2001/REC-SVG-20010904/DTD/svg10.dtd">
<svg version="1.0" xmlns="http://www.w3.org/2000/svg"
 width="512.000000pt" height="512.000000pt" viewBox="0 0 512.000000 512.000000"
 preserveAspectRatio="xMidYMid meet">

<g transform="translate(0.000000,512.000000) scale(0.100000,-0.100000)"
fill="#000000" stroke="none">
<path d="M2295 4549 c-586 -55 -1111 -264 -1525 -608 -354 -294 -587 -680
-667 -1104 -24 -128 -24 -426 0 -554 146 -776 806 -1400 1726 -1633 1009 -255
2123 47 2742 744 224 251 371 535 436 844 24 113 27 149 27 322 0 173 -3 209
-27 321 -123 583 -531 1072 -1155 1383 -276 138 -565 225 -902 271 -139 19
-517 27 -655 14z m669 -339 c719 -108 1324 -495 1595 -1020 70 -137 102 -222
130 -353 12 -53 21 -98 21 -100 0 -2 -37 7 -82 20 -114 34 -274 42 -389 19
-357 -73 -677 -364 -1009 -921 -120 -201 -295 -323 -529 -371 -113 -22 -360
-15 -471 14 -94 25 -187 60 -266 100 -81 41 -211 139 -253 192 -62 77 -155
172 -226 230 -248 203 -618 375 -1023 477 l-65 16 6 112 c37 680 590 1273
1411 1509 180 52 314 77 551 100 105 11 466 -4 599 -24z m1561 -1755 c32 -9
86 -29 121 -45 l62 -30 -14 -71 c-74 -390 -335 -757 -724 -1018 -291 -195
-632 -324 -1015 -383 -188 -29 -578 -31 -760 -4 -761 112 -1370 499 -1645
1046 -62 122 -93 210 -76 210 7 0 79 -22 158 -49 374 -128 620 -278 803 -491
210 -243 498 -400 840 -455 117 -19 348 -19 458 0 325 57 594 235 756 501 298
489 525 719 779 789 65 18 186 18 257 0z"/>
<path d="M1902 3870 c-94 -58 -68 -199 40 -216 132 -22 192 164 72 221 -43 20
-73 19 -112 -5z"/>
<path d="M3490 3807 c-31 -16 -70 -73 -70 -104 0 -57 64 -123 118 -123 64 0
122 57 122 120 0 89 -92 147 -170 107z"/>
<path d="M2367 3590 c-465 -59 -791 -277 -840 -564 -52 -307 241 -581 726
-678 148 -30 452 -32 592 -5 430 84 702 285 748 551 53 310 -254 592 -745 682
-98 18 -384 26 -481 14z m363 -320 c184 -24 375 -96 468 -175 45 -39 82 -100
82 -135 0 -35 -37 -96 -80 -133 -239 -204 -793 -247 -1135 -88 -135 63 -225
152 -225 221 0 39 40 99 93 141 170 136 504 207 797 169z"/>
<path d="M4045 3227 c-42 -42 -51 -77 -34 -124 20 -50 60 -78 116 -78 39 0 49
5 79 37 25 28 34 47 34 73 0 74 -51 125 -126 125 -28 0 -44 -8 -69 -33z"/>
<path d="M1055 2926 c-43 -19 -66 -49 -72 -94 -13 -96 87 -163 176 -117 31 15
61 69 61 107 0 36 -37 88 -75 104 -42 17 -51 17 -90 0z"/>
<path d="M2475 2071 c-45 -20 -70 -60 -70 -112 0 -42 5 -53 33 -81 28 -28 39
-33 82 -33 43 0 54 5 82 33 28 28 33 39 33 82 0 42 -5 54 -31 81 -33 33 -92
46 -129 30z"/>
</g>
</svg>
