<?xml version="1.0" standalone="no"?>
<!DOCTYPE svg PUBLIC "-//W3C//DTD SVG 20010904//EN"
 "http://www.w3.org/TR/2001/REC-SVG-20010904/DTD/svg10.dtd">
<svg version="1.0" xmlns="http://www.w3.org/2000/svg"
 width="512.000000pt" height="512.000000pt" viewBox="0 0 512.000000 512.000000"
 preserveAspectRatio="xMidYMid meet">

<g transform="translate(0.000000,512.000000) scale(0.100000,-0.100000)"
fill="#000000" stroke="none">
<path d="M2370 5114 c-399 -48 -619 -107 -910 -245 -550 -262 -993 -718 -1241
-1279 -428 -970 -207 -2117 552 -2856 207 -201 413 -346 664 -469 183 -89 306
-136 479 -180 568 -145 1133 -102 1666 127 732 314 1283 971 1470 1753 53 221
65 327 65 595 0 268 -11 374 -65 595 -210 874 -856 1570 -1711 1843 -250 80
-448 112 -729 117 -113 2 -221 1 -240 -1z m400 -295 c330 -30 690 -148 968
-318 94 -57 245 -168 310 -227 l43 -39 -363 -363 -364 -363 -189 -3 c-105 -1
-201 -6 -214 -11 -21 -7 -23 -6 -18 9 33 86 31 268 -4 383 -40 130 -84 198
-218 336 -68 70 -135 130 -148 133 -44 11 -78 -8 -171 -99 -209 -205 -281
-364 -269 -600 3 -62 9 -125 13 -141 6 -27 5 -29 -17 -21 -13 4 -98 10 -189
12 -161 5 -166 4 -200 -19 -53 -36 -63 -78 -57 -233 3 -71 11 -155 17 -185 13
-60 67 -183 99 -229 27 -37 26 -41 -3 -41 -38 0 -90 -42 -104 -85 -16 -47 -11
-267 8 -355 13 -60 67 -183 99 -229 12 -16 21 -31 21 -34 0 -2 -17 -7 -38 -11
-72 -11 -102 -68 -102 -191 l0 -70 -399 -399 -399 -398 -61 73 c-152 182 -326
487 -400 702 -260 752 -120 1567 374 2182 89 110 272 289 381 372 462 352
1023 515 1594 462z m-165 -761 c112 -124 147 -204 153 -344 7 -161 -31 -260
-147 -385 l-59 -64 -66 64 c-72 71 -118 148 -141 236 -31 119 -11 267 50 371
28 48 141 174 156 174 4 0 28 -24 54 -52z m1765 -128 c386 -506 542 -1180 419
-1805 -181 -912 -889 -1618 -1802 -1794 -664 -128 -1361 53 -1886 490 l-73 61
343 344 c189 189 346 344 349 343 3 0 23 -37 44 -82 31 -64 56 -98 115 -157
136 -134 261 -189 451 -199 l115 -6 6 -190 c3 -104 6 -191 7 -193 1 -1 17 -11
35 -22 37 -23 65 -25 102 -8 48 22 55 51 55 243 l0 175 88 0 c184 0 336 63
467 195 88 88 150 191 180 300 21 80 32 328 16 378 -15 46 -63 87 -102 87 -34
0 -35 3 -9 40 34 47 77 142 94 205 22 79 33 328 17 377 -16 48 -51 79 -100 85
l-40 6 23 31 c63 83 103 198 117 331 l10 100 412 413 412 413 39 -43 c21 -24
64 -77 96 -118z m-2291 -635 c140 -33 263 -132 324 -262 28 -61 32 -80 35
-175 l4 -108 -65 0 c-137 0 -243 40 -335 125 -105 97 -152 208 -152 357 l0 78
63 0 c34 0 91 -7 126 -15z m1119 -92 c-3 -100 -6 -114 -40 -184 -83 -171 -242
-269 -435 -269 l-73 0 0 84 c0 274 203 472 489 475 l63 1 -4 -107z m-1137
-613 c141 -26 279 -134 342 -267 28 -61 32 -80 35 -175 l4 -108 -69 0 c-135 0
-266 54 -351 144 -94 99 -132 197 -132 338 l0 78 59 0 c32 0 83 -4 112 -10z
m1139 -74 c0 -147 -45 -252 -149 -349 -95 -87 -200 -127 -336 -127 l-65 0 0
84 c0 273 202 472 483 475 l67 1 0 -84z m-1139 -636 c140 -26 271 -127 337
-259 34 -70 37 -82 41 -183 l3 -108 -69 0 c-135 0 -266 54 -351 144 -94 99
-132 197 -132 338 l0 78 59 0 c32 0 83 -4 112 -10z m1139 -74 c0 -170 -69
-303 -208 -398 -67 -46 -146 -70 -249 -76 l-93 -5 0 86 c0 190 99 351 264 428
75 35 127 46 219 48 l67 1 0 -84z"/>
</g>
</svg>
