<?xml version="1.0" standalone="no"?>
<!DOCTYPE svg PUBLIC "-//W3C//DTD SVG 20010904//EN"
 "http://www.w3.org/TR/2001/REC-SVG-20010904/DTD/svg10.dtd">
<svg version="1.0" xmlns="http://www.w3.org/2000/svg"
 width="512.000000pt" height="512.000000pt" viewBox="0 0 512.000000 512.000000"
 preserveAspectRatio="xMidYMid meet">

<g transform="translate(0.000000,512.000000) scale(0.100000,-0.100000)"
fill="#000000" stroke="none">
<path d="M2459 5107 c-185 -53 -305 -239 -278 -432 4 -33 6 -61 5 -63 -2 -2
-50 -14 -107 -27 -278 -63 -526 -172 -754 -330 -159 -110 -180 -141 -134 -199
33 -42 69 -35 155 29 379 286 864 431 1323 396 264 -20 489 -80 719 -191 327
-158 595 -392 795 -695 194 -295 300 -623 322 -1002 l7 -113 -1973 0 -1972 0
6 138 c17 388 154 769 391 1080 120 159 123 166 81 207 -33 34 -75 33 -110 -2
-16 -16 -58 -68 -95 -118 -272 -368 -419 -804 -420 -1243 l0 -132 34 -38 34
-37 222 -3 222 -3 -49 -32 c-68 -45 -202 -180 -253 -256 -56 -84 -115 -212
-142 -308 -19 -67 -22 -103 -22 -263 0 -173 2 -191 28 -275 30 -98 85 -216
137 -292 45 -66 162 -187 231 -238 l58 -43 -89 -4 c-70 -2 -93 -7 -110 -22
-27 -25 -29 -86 -3 -109 17 -16 180 -17 2135 -17 l2117 0 0 -45 c0 -107 -76
-216 -178 -255 -51 -20 -86 -20 -2232 -20 -2146 0 -2181 0 -2232 20 -102 39
-178 148 -178 255 l0 45 148 0 c173 0 192 7 192 69 0 26 -7 44 -21 57 -19 17
-38 19 -203 19 -172 0 -183 -1 -213 -23 -44 -31 -57 -77 -51 -183 5 -74 11
-100 40 -161 58 -119 155 -200 283 -234 75 -21 4396 -20 4472 0 196 52 323
220 323 429 0 80 -17 126 -56 152 -27 19 -52 20 -447 23 l-418 3 58 43 c69 52
187 172 232 239 52 76 107 194 137 292 26 84 28 103 28 270 1 158 -2 190 -22
265 -28 102 -84 224 -142 311 -51 76 -185 211 -254 257 l-49 32 190 0 c181 0
192 1 224 23 52 34 60 71 54 227 -23 528 -217 1003 -564 1375 -299 321 -706
553 -1114 635 -31 6 -55 15 -53 19 3 4 9 34 14 67 27 167 -67 339 -224 411
-67 30 -185 40 -255 20z m173 -149 c53 -16 122 -79 143 -130 20 -51 23 -119 7
-168 l-12 -35 -98 7 c-53 5 -148 6 -209 2 l-113 -6 -11 29 c-6 15 -11 51 -12
78 -1 157 152 269 305 223z m-962 -2654 c87 -22 218 -84 293 -138 34 -24 101
-84 150 -134 87 -89 98 -111 81 -157 -10 -24 -62 -48 -92 -40 -15 4 -69 48
-122 100 -140 137 -231 188 -390 221 -218 44 -455 -29 -616 -190 -134 -134
-193 -269 -201 -458 -7 -144 11 -234 69 -351 59 -118 190 -248 309 -305 108
-53 190 -72 310 -72 149 0 272 38 399 123 65 43 377 355 384 383 7 28 -16 79
-39 88 -42 16 -62 2 -229 -162 -181 -177 -236 -219 -332 -253 -82 -29 -229
-37 -311 -15 -193 49 -341 195 -398 391 -24 82 -17 247 15 328 80 211 291 356
516 357 67 0 193 -33 257 -67 29 -16 99 -73 157 -129 114 -110 147 -131 212
-140 128 -18 258 94 258 221 0 86 -16 114 -133 233 -62 62 -136 129 -166 150
l-53 37 281 3 c154 1 408 1 562 0 l281 -3 -53 -37 c-30 -21 -204 -187 -386
-370 -355 -356 -356 -357 -314 -409 13 -16 29 -23 55 -23 35 0 54 17 369 331
183 181 352 344 377 360 481 322 1117 108 1301 -437 29 -84 33 -111 37 -235 3
-118 1 -154 -17 -228 -41 -171 -123 -312 -253 -432 -92 -85 -192 -144 -316
-185 -83 -28 -115 -34 -223 -38 -272 -10 -469 70 -683 280 -80 78 -96 99 -96
125 0 47 34 83 78 83 33 0 46 -8 107 -71 183 -185 341 -259 554 -259 120 0
202 19 310 72 69 33 102 57 176 132 155 154 212 301 203 524 -4 98 -10 130
-35 198 -100 268 -329 440 -613 461 -120 8 -229 -15 -350 -73 l-95 -47 -620
-617 c-658 -656 -688 -682 -847 -748 -116 -48 -221 -65 -367 -60 -108 4 -140
10 -223 38 -290 97 -499 324 -569 617 -18 74 -20 110 -17 228 4 124 8 151 37
235 104 307 354 521 678 580 70 13 267 4 343 -16z m2100 -298 c180 -38 334
-170 400 -343 32 -81 39 -246 15 -328 -56 -194 -204 -341 -392 -390 -89 -23
-208 -19 -300 10 -97 31 -163 75 -279 187 -100 97 -139 118 -214 118 -172 0
-281 -174 -204 -327 28 -58 189 -219 276 -278 l53 -35 -565 0 -565 0 55 36
c30 20 334 314 675 653 664 661 656 654 797 691 87 23 160 24 248 6z"/>
<path d="M1865 4196 c-228 -94 -404 -208 -579 -376 -259 -249 -441 -572 -515
-913 -31 -142 -29 -179 13 -225 l34 -37 313 -3 c330 -3 348 -1 389 43 18 19
25 49 41 167 60 466 198 843 405 1111 94 123 104 139 104 163 0 56 -48 105
-102 104 -13 -1 -59 -16 -103 -34z m-77 -218 c-187 -294 -312 -646 -363 -1023
-9 -66 -19 -130 -21 -142 l-4 -23 -250 0 c-138 0 -250 3 -250 8 0 4 11 53 25
109 105 436 387 814 775 1042 97 56 108 60 88 29z"/>
</g>
</svg>
