<?xml version="1.0" standalone="no"?>
<!DOCTYPE svg PUBLIC "-//W3C//DTD SVG 20010904//EN"
 "http://www.w3.org/TR/2001/REC-SVG-20010904/DTD/svg10.dtd">
<svg version="1.0" xmlns="http://www.w3.org/2000/svg"
 width="512.000000pt" height="512.000000pt" viewBox="0 0 512.000000 512.000000"
 preserveAspectRatio="xMidYMid meet">

<g transform="translate(0.000000,512.000000) scale(0.100000,-0.100000)"
fill="#000000" stroke="none">
<path d="M393 5106 c-183 -45 -344 -210 -382 -394 -16 -75 -16 -4229 0 -4304
39 -189 208 -358 397 -397 75 -16 4229 -16 4304 0 189 39 358 208 397 397 16
75 16 4229 0 4304 -39 189 -208 358 -397 397 -81 17 -4248 14 -4319 -3z m4358
-189 c67 -32 141 -108 172 -174 l22 -48 0 -2135 0 -2135 -22 -48 c-31 -66
-105 -142 -172 -174 l-56 -28 -2135 0 -2135 0 -48 22 c-66 31 -142 105 -174
172 l-28 56 0 2135 0 2135 28 56 c45 92 135 165 232 190 17 4 982 6 2145 6
l2115 -2 56 -28z"/>
<path d="M661 4764 c-211 -57 -349 -265 -313 -475 24 -142 110 -257 237 -320
67 -33 74 -34 185 -34 104 0 121 3 173 27 80 38 170 126 210 207 30 63 32 72
32 181 0 109 -2 119 -32 183 -87 184 -299 283 -492 231z m230 -190 c109 -60
155 -180 117 -308 -16 -55 -99 -138 -154 -154 -127 -37 -248 8 -307 116 -58
106 -42 218 42 302 84 84 197 100 302 44z"/>
<path d="M1865 4766 c-125 -30 -228 -114 -285 -230 -61 -124 -52 -292 21 -408
34 -52 96 -113 149 -145 110 -65 272 -72 393 -16 170 80 271 268 240 447 -43
250 -279 410 -518 352z m174 -172 c111 -33 193 -158 177 -272 -18 -130 -123
-222 -253 -222 -143 0 -252 110 -253 252 0 94 42 171 118 215 75 44 130 51
211 27z"/>
<path d="M3051 4764 c-165 -44 -285 -177 -314 -350 -31 -179 70 -367 240 -446
57 -27 83 -33 159 -36 139 -6 235 31 325 125 91 95 124 185 117 323 -3 74 -9
98 -38 156 -90 183 -297 280 -489 228z m229 -190 c118 -64 164 -206 106 -330
-87 -186 -351 -196 -449 -16 -58 106 -42 218 42 302 84 84 197 100 301 44z"/>
<path d="M4255 4766 c-126 -31 -233 -117 -288 -233 -30 -64 -32 -74 -32 -183
0 -111 1 -118 34 -182 41 -82 123 -163 206 -204 56 -27 68 -29 175 -29 109 0
119 2 183 32 127 60 214 178 239 321 50 292 -227 549 -517 478z m174 -172
c112 -33 193 -158 176 -272 -26 -174 -203 -272 -361 -198 -174 81 -197 328
-40 434 80 53 137 63 225 36z"/>
<path d="M452 3727 c-31 -33 -29 -87 4 -118 l26 -24 2078 0 2078 0 26 24 c34
32 36 88 3 119 l-23 22 -2085 0 -2086 0 -21 -23z"/>
<path d="M479 3382 c-59 -30 -111 -95 -129 -160 -6 -24 -10 -485 -10 -1343 0
-1479 -6 -1376 79 -1460 85 -86 -102 -79 2141 -79 2243 0 2056 -7 2141 79 85
84 79 -19 79 1460 0 858 -4 1319 -10 1343 -18 65 -70 130 -129 160 l-53 28
-2028 0 -2028 0 -53 -28z m1299 -186 c-109 -62 -228 -158 -334 -269 -501 -523
-558 -1341 -136 -1937 118 -168 334 -362 497 -448 l50 -27 -633 -3 c-680 -2
-673 -3 -699 48 -18 35 -19 2600 -1 2633 25 48 7 46 688 47 l645 0 -77 -44z
m1057 19 c258 -58 485 -178 667 -353 122 -117 207 -233 278 -377 100 -205 141
-378 141 -606 0 -162 -19 -284 -66 -426 -261 -783 -1141 -1161 -1880 -808
-700 335 -982 1180 -623 1866 191 367 572 645 968 709 41 6 82 13 90 15 39 10
361 -5 425 -20z m1736 12 c9 -7 21 -22 27 -34 18 -33 17 -2598 -1 -2633 -26
-51 -19 -50 -699 -48 l-633 3 50 27 c164 86 377 279 495 446 330 468 376 1071
120 1583 -127 252 -371 506 -614 641 l-51 28 645 0 c491 -1 649 -4 661 -13z"/>
<path d="M2405 3064 c-75 -11 -242 -58 -308 -86 -342 -145 -598 -442 -694
-805 -34 -129 -43 -362 -19 -498 42 -245 158 -467 338 -644 173 -172 399 -290
638 -332 169 -30 414 -11 576 45 237 81 457 244 596 440 103 147 184 345 208
514 19 131 8 355 -23 475 -114 434 -449 761 -888 867 -72 18 -129 24 -244 26
-82 1 -163 0 -180 -2z m95 -389 c32 -35 88 -34 120 0 22 23 25 37 28 124 l4
97 62 -8 c142 -19 323 -93 445 -183 l64 -47 -72 -72 c-61 -62 -71 -76 -71
-107 0 -54 39 -84 103 -80 11 0 50 31 89 69 l70 67 27 -32 c95 -114 182 -322
207 -495 l6 -48 -101 0 c-95 0 -104 -2 -126 -25 -37 -36 -34 -86 6 -119 28
-24 38 -26 125 -26 52 0 94 -4 94 -9 0 -5 -7 -45 -15 -88 -18 -95 -52 -197
-90 -273 -29 -58 -124 -200 -133 -200 -3 0 -38 31 -78 70 -83 81 -108 87 -155
41 -49 -49 -41 -80 41 -165 l70 -72 -58 -43 c-118 -88 -317 -169 -456 -186
l-56 -7 0 83 c0 98 -19 148 -62 163 -75 26 -118 -33 -118 -163 l0 -83 -56 7
c-139 17 -338 98 -456 186 l-58 43 70 72 c61 62 70 77 70 108 0 48 -36 86 -81
86 -25 0 -45 -13 -103 -70 -40 -38 -75 -70 -78 -70 -9 0 -104 142 -133 200
-38 76 -72 178 -90 273 -8 43 -15 83 -15 88 0 5 42 9 94 9 87 0 97 2 125 26
40 33 43 83 6 119 -22 23 -31 25 -126 25 l-101 0 6 48 c25 173 112 381 207
495 l27 32 70 -67 c39 -38 78 -69 89 -69 63 -4 103 26 103 79 0 29 -11 45 -71
107 l-71 74 64 46 c121 90 305 166 443 183 l60 7 6 -97 c4 -85 8 -101 29 -123z"/>
<path d="M2499 2444 c-24 -26 -24 -26 -27 -287 -2 -171 0 -275 8 -299 9 -33
27 -48 162 -138 87 -57 162 -100 175 -100 32 0 83 51 83 83 0 46 -11 58 -131
137 l-118 80 -3 249 c-3 248 -3 250 -27 275 -34 36 -88 36 -122 0z"/>
</g>
</svg>
