<?xml version="1.0" standalone="no"?>
<!DOCTYPE svg PUBLIC "-//W3C//DTD SVG 20010904//EN"
 "http://www.w3.org/TR/2001/REC-SVG-20010904/DTD/svg10.dtd">
<svg version="1.0" xmlns="http://www.w3.org/2000/svg"
 width="512.000000pt" height="512.000000pt" viewBox="0 0 512.000000 512.000000"
 preserveAspectRatio="xMidYMid meet">

<g transform="translate(0.000000,512.000000) scale(0.100000,-0.100000)"
fill="#000000" stroke="none">
<path d="M175 5026 c-66 -30 -136 -109 -158 -176 -16 -48 -17 -220 -17 -2290
0 -2076 1 -2241 17 -2290 22 -69 96 -150 165 -181 l53 -24 2325 0 2325 0 53
24 c69 31 143 112 165 181 16 49 17 214 17 2290 0 2070 -1 2242 -17 2290 -22
67 -92 146 -158 176 l-50 24 -2335 0 -2335 0 -50 -24z m4645 -2476 l0 -2200
-2260 0 -2260 0 0 2200 0 2200 2260 0 2260 0 0 -2200z"/>
<path d="M1303 4511 c-109 -40 -195 -120 -247 -230 -28 -61 -31 -74 -30 -166
0 -79 5 -112 22 -155 62 -154 197 -253 363 -267 173 -15 335 81 412 245 30 63
32 74 32 177 0 104 -2 114 -32 176 -41 84 -118 160 -202 201 -58 29 -75 33
-165 35 -79 2 -112 -2 -153 -16z m223 -315 c28 -28 34 -42 34 -75 0 -85 -56
-138 -133 -128 -109 15 -144 162 -53 218 18 11 50 19 75 19 36 0 49 -6 77 -34z"/>
<path d="M2425 4512 c-186 -69 -293 -231 -283 -427 5 -105 45 -193 120 -268
208 -208 556 -147 680 120 60 128 47 293 -32 407 -42 63 -115 125 -178 154
-78 35 -231 42 -307 14z m203 -298 c50 -35 66 -112 35 -165 -18 -31 -67 -59
-103 -59 -89 0 -147 99 -105 180 22 42 53 60 105 60 25 0 56 -7 68 -16z"/>
<path d="M3553 4515 c-106 -33 -205 -120 -255 -225 -61 -125 -47 -300 32 -415
192 -279 621 -230 741 85 85 224 -32 473 -258 551 -66 22 -195 25 -260 4z
m187 -300 c67 -34 78 -132 22 -187 -55 -56 -153 -45 -187 22 -8 16 -15 48 -15
71 0 33 6 47 34 75 28 28 42 34 75 34 23 0 55 -7 71 -15z"/>
<path d="M907 3449 c-147 -50 -252 -164 -292 -314 -23 -89 -23 -2091 0 -2180
21 -78 58 -145 114 -201 57 -59 102 -87 183 -116 l63 -23 1590 0 1590 0 63 23
c155 56 257 165 297 317 23 89 23 2091 0 2180 -40 152 -152 271 -298 317 -56
17 -138 18 -1655 18 -1572 -1 -1598 -1 -1655 -21z m3254 -302 c74 -49 69 27
67 -1114 -3 -1021 -3 -1022 -24 -1050 -12 -15 -36 -37 -55 -48 -34 -20 -52
-20 -1584 -20 -1532 0 -1550 0 -1584 20 -19 11 -43 33 -55 48 -21 28 -21 29
-24 1050 -2 1141 -7 1065 67 1114 l34 23 1562 0 1562 0 34 -23z"/>
<path d="M1179 2947 c-94 -63 -88 -193 12 -252 34 -20 52 -20 1369 -20 1317 0
1335 0 1369 20 100 59 106 189 12 252 l-34 23 -1347 0 -1347 0 -34 -23z"/>
</g>
</svg>
